<svg xmlns="http://www.w3.org/2000/svg" xmlns:xlink="http://www.w3.org/1999/xlink" width="500" zoomAndPan="magnify" viewBox="0 0 375 374.999991" height="500" preserveAspectRatio="xMidYMid meet" version="1.0"><defs><g/><clipPath id="id1"><path d="M 85 87 L 286 87 L 286 288 L 85 288 Z M 85 87 " clip-rule="nonzero"/></clipPath><clipPath id="id2"><path d="M 44.382812 181.113281 L 178.011719 59.398438 L 312.855469 207.441406 L 179.230469 329.15625 Z M 44.382812 181.113281 " clip-rule="nonzero"/></clipPath><clipPath id="id3"><path d="M 44.382812 181.113281 L 192.425781 46.265625 L 327.273438 194.308594 L 179.230469 329.15625 Z M 44.382812 181.113281 " clip-rule="nonzero"/></clipPath></defs><g clip-path="url(#id1)"><g clip-path="url(#id2)"><g clip-path="url(#id3)"><path fill="#403737" d="M 253.25 261.734375 C 212.449219 298.898438 148.972656 295.9375 111.804688 255.132812 C 74.640625 214.332031 77.601562 150.855469 118.40625 113.691406 C 159.207031 76.523438 222.683594 79.484375 259.851562 120.289062 C 297.015625 161.089844 294.054688 224.566406 253.25 261.734375 Z M 119.402344 114.785156 C 79.183594 151.417969 76.265625 213.917969 112.902344 254.136719 C 149.535156 294.355469 212.035156 297.273438 252.253906 260.640625 C 292.472656 224.003906 295.390625 161.503906 258.757812 121.285156 C 222.121094 81.066406 159.621094 78.148438 119.402344 114.785156 Z M 119.402344 114.785156 " fill-opacity="1" fill-rule="nonzero"/></g></g></g><g fill="#403737" fill-opacity="1"><g transform="translate(122.415459, 226.387886)"><g><path d="M 88.203125 16.609375 C 87.398438 18.128906 86.675781 19.328125 86.03125 20.203125 C 85.394531 21.085938 84.632812 21.929688 83.75 22.734375 L 82.90625 23.109375 C 75.125 21.097656 67.601562 18.207031 60.34375 14.4375 C 53.082031 10.664062 46.445312 6.132812 40.4375 0.84375 C 39.789062 0.925781 38.828125 0.96875 37.546875 0.96875 C 26.953125 0.96875 18.804688 -2.398438 13.109375 -9.140625 C 7.421875 -15.878906 4.578125 -25.46875 4.578125 -37.90625 C 4.578125 -50.738281 7.5625 -60.601562 13.53125 -67.5 C 19.507812 -74.40625 28.078125 -77.859375 39.234375 -77.859375 C 49.734375 -77.859375 57.8125 -74.585938 63.46875 -68.046875 C 69.125 -61.503906 71.953125 -52.054688 71.953125 -39.703125 C 71.953125 -29.359375 69.988281 -20.859375 66.0625 -14.203125 C 62.132812 -7.546875 56.519531 -3.050781 49.21875 -0.71875 C 60.769531 7.382812 73.644531 12.757812 87.84375 15.40625 Z M 14.4375 -38.75 C 14.4375 -17.644531 22.335938 -7.09375 38.140625 -7.09375 C 45.921875 -7.09375 51.835938 -9.738281 55.890625 -15.03125 C 59.941406 -20.332031 61.96875 -28.273438 61.96875 -38.859375 C 61.96875 -59.554688 54.066406 -69.90625 38.265625 -69.90625 C 30.242188 -69.90625 24.265625 -67.335938 20.328125 -62.203125 C 16.398438 -57.078125 14.4375 -49.257812 14.4375 -38.75 Z M 14.4375 -38.75 "/></g></g></g><g fill="#403737" fill-opacity="1"><g transform="translate(199.297983, 226.387886)"><g><path d="M 20.9375 -68.828125 L 20.703125 -42 L 33.6875 -41.75 L 46.203125 -42.109375 L 46.921875 -41.15625 L 46.078125 -33.8125 L 32.734375 -34.171875 L 20.578125 -34.046875 L 20.453125 -24.0625 L 20.9375 0 L 11.1875 0 L 11.796875 -23.21875 L 11.1875 -77.125 L 52.21875 -77.125 L 52.9375 -76.171875 L 52.109375 -68.46875 L 34.40625 -69.0625 Z M 20.9375 -68.828125 "/></g></g></g><g fill="#403737" fill-opacity="1"><g transform="translate(220.472877, 100.667723)"><g><path d="M 7.1875 -6 C 8.351562 -5.46875 9.128906 -4.707031 9.515625 -3.71875 C 9.898438 -2.726562 9.84375 -1.675781 9.34375 -0.5625 C 8.84375 0.550781 8.0625 1.328125 7 1.765625 C 5.945312 2.210938 4.859375 2.179688 3.734375 1.671875 L 1.859375 0.828125 L 0.453125 0.28125 C 0.347656 0.226562 0.316406 0.148438 0.359375 0.046875 C 0.410156 -0.0546875 0.476562 -0.0859375 0.5625 -0.046875 L 0.875 0.09375 C 1.03125 0.132812 1.171875 0.132812 1.296875 0.09375 C 1.429688 0.0625 1.523438 -0.0195312 1.578125 -0.15625 L 4.390625 -6.390625 C 4.503906 -6.648438 4.398438 -6.863281 4.078125 -7.03125 L 3.796875 -7.21875 C 3.710938 -7.269531 3.691406 -7.335938 3.734375 -7.421875 C 3.773438 -7.515625 3.847656 -7.535156 3.953125 -7.484375 L 5.3125 -6.84375 Z M 8.609375 -3.375 C 8.554688 -3.832031 8.382812 -4.242188 8.09375 -4.609375 C 7.8125 -4.984375 7.425781 -5.28125 6.9375 -5.5 L 5.953125 -5.9375 C 5.796875 -6.007812 5.644531 -6.019531 5.5 -5.96875 C 5.363281 -5.914062 5.257812 -5.8125 5.1875 -5.65625 L 2.65625 -0.015625 C 2.59375 0.140625 2.585938 0.285156 2.640625 0.421875 C 2.691406 0.554688 2.796875 0.660156 2.953125 0.734375 L 4 1.203125 C 4.84375 1.578125 5.644531 1.585938 6.40625 1.234375 C 7.175781 0.890625 7.769531 0.257812 8.1875 -0.65625 C 8.601562 -1.582031 8.742188 -2.488281 8.609375 -3.375 Z M 8.609375 -3.375 "/></g></g></g><g fill="#403737" fill-opacity="1"><g transform="translate(233.598769, 107.098489)"><g><path d="M 5.359375 3.46875 L 1.59375 1.03125 L 0.421875 0.328125 C 0.316406 0.273438 0.296875 0.203125 0.359375 0.109375 C 0.421875 0.015625 0.492188 -0.0078125 0.578125 0.03125 L 0.859375 0.203125 C 1.003906 0.273438 1.144531 0.300781 1.28125 0.28125 C 1.414062 0.269531 1.523438 0.203125 1.609375 0.078125 L 5.3125 -5.65625 C 5.46875 -5.882812 5.398438 -6.113281 5.109375 -6.34375 L 4.84375 -6.5625 C 4.757812 -6.601562 4.742188 -6.664062 4.796875 -6.75 C 4.859375 -6.84375 4.941406 -6.863281 5.046875 -6.8125 L 6.171875 -6.015625 L 9.75 -3.703125 C 9.863281 -3.617188 9.9375 -3.515625 9.96875 -3.390625 C 10 -3.265625 9.984375 -3.140625 9.921875 -3.015625 L 9.46875 -2 C 9.40625 -1.863281 9.316406 -1.832031 9.203125 -1.90625 C 9.085938 -1.976562 9.050781 -2.078125 9.09375 -2.203125 C 9.207031 -2.585938 9.207031 -2.910156 9.09375 -3.171875 C 8.976562 -3.441406 8.742188 -3.695312 8.390625 -3.9375 L 6.796875 -4.96875 C 6.648438 -5.0625 6.503906 -5.09375 6.359375 -5.0625 C 6.210938 -5.039062 6.09375 -4.957031 6 -4.8125 L 4.625 -2.6875 C 4.5625 -2.601562 4.570312 -2.53125 4.65625 -2.46875 L 6.53125 -1.25 C 6.625 -1.195312 6.710938 -1.175781 6.796875 -1.1875 C 6.890625 -1.195312 6.957031 -1.210938 7 -1.234375 C 7.039062 -1.265625 7.113281 -1.328125 7.21875 -1.421875 L 7.34375 -1.546875 C 7.425781 -1.597656 7.503906 -1.597656 7.578125 -1.546875 C 7.660156 -1.492188 7.671875 -1.421875 7.609375 -1.328125 L 7 -0.5 L 6.515625 0.34375 C 6.460938 0.4375 6.382812 0.457031 6.28125 0.40625 C 6.207031 0.363281 6.1875 0.289062 6.21875 0.1875 L 6.3125 -0.015625 C 6.476562 -0.390625 6.453125 -0.644531 6.234375 -0.78125 L 4.359375 -2.015625 C 4.273438 -2.066406 4.203125 -2.046875 4.140625 -1.953125 L 2.640625 0.375 C 2.546875 0.519531 2.515625 0.664062 2.546875 0.8125 C 2.578125 0.957031 2.664062 1.078125 2.8125 1.171875 L 4.484375 2.25 C 4.828125 2.476562 5.179688 2.585938 5.546875 2.578125 C 5.921875 2.566406 6.257812 2.429688 6.5625 2.171875 C 6.675781 2.078125 6.769531 2.054688 6.84375 2.109375 C 6.925781 2.160156 6.96875 2.21875 6.96875 2.28125 C 6.96875 2.34375 6.953125 2.390625 6.921875 2.421875 L 6.09375 3.359375 C 6 3.460938 5.882812 3.523438 5.75 3.546875 C 5.613281 3.578125 5.484375 3.550781 5.359375 3.46875 Z M 5.359375 3.46875 "/></g></g></g><g fill="#403737" fill-opacity="1"><g transform="translate(244.57255, 114.729672)"><g><path d="M 6.140625 2.46875 C 5.648438 3.03125 5.0625 3.273438 4.375 3.203125 C 3.695312 3.128906 3.054688 2.828125 2.453125 2.296875 C 1.847656 1.773438 1.410156 1.269531 1.140625 0.78125 C 0.867188 0.300781 0.816406 -0.0234375 0.984375 -0.203125 L 1.90625 -1.265625 C 2.007812 -1.390625 2.109375 -1.40625 2.203125 -1.3125 C 2.285156 -1.25 2.289062 -1.144531 2.21875 -1 C 1.976562 -0.40625 1.878906 0.109375 1.921875 0.546875 C 1.972656 0.992188 2.222656 1.414062 2.671875 1.8125 C 3.128906 2.207031 3.585938 2.421875 4.046875 2.453125 C 4.515625 2.492188 4.90625 2.335938 5.21875 1.984375 C 5.570312 1.578125 5.640625 1.046875 5.421875 0.390625 C 5.335938 0.0859375 5.222656 -0.21875 5.078125 -0.53125 C 4.929688 -0.851562 4.789062 -1.179688 4.65625 -1.515625 C 4.519531 -1.859375 4.421875 -2.1875 4.359375 -2.5 C 4.191406 -3.207031 4.320312 -3.8125 4.75 -4.3125 C 5.1875 -4.8125 5.722656 -5.039062 6.359375 -5 C 6.992188 -4.96875 7.570312 -4.722656 8.09375 -4.265625 C 8.625 -3.804688 9.015625 -3.351562 9.265625 -2.90625 C 9.515625 -2.46875 9.570312 -2.171875 9.4375 -2.015625 L 8.625 -1.109375 C 8.519531 -0.984375 8.421875 -0.957031 8.328125 -1.03125 C 8.242188 -1.101562 8.234375 -1.222656 8.296875 -1.390625 C 8.515625 -1.890625 8.601562 -2.320312 8.5625 -2.6875 C 8.519531 -3.050781 8.289062 -3.410156 7.875 -3.765625 C 7.46875 -4.117188 7.0625 -4.300781 6.65625 -4.3125 C 6.257812 -4.332031 5.9375 -4.195312 5.6875 -3.90625 C 5.4375 -3.625 5.335938 -3.273438 5.390625 -2.859375 C 5.441406 -2.441406 5.5625 -2.003906 5.75 -1.546875 C 5.945312 -1.097656 6.140625 -0.640625 6.328125 -0.171875 C 6.515625 0.285156 6.609375 0.75 6.609375 1.21875 C 6.609375 1.695312 6.453125 2.113281 6.140625 2.46875 Z M 6.140625 2.46875 "/></g></g></g><g fill="#403737" fill-opacity="1"><g transform="translate(253.825659, 123.387814)"><g><path d="M 0.453125 0.578125 C 0.378906 0.492188 0.378906 0.414062 0.453125 0.34375 C 0.523438 0.28125 0.597656 0.273438 0.671875 0.328125 L 0.828125 0.46875 C 1.066406 0.6875 1.296875 0.695312 1.515625 0.5 L 6.59375 -4.0625 C 6.800781 -4.25 6.796875 -4.488281 6.578125 -4.78125 L 6.390625 -5.0625 C 6.328125 -5.144531 6.332031 -5.21875 6.40625 -5.28125 C 6.476562 -5.351562 6.554688 -5.347656 6.640625 -5.265625 L 7.515625 -4.21875 L 8.34375 -3.359375 C 8.414062 -3.273438 8.421875 -3.203125 8.359375 -3.140625 C 8.273438 -3.054688 8.195312 -3.054688 8.125 -3.140625 L 7.953125 -3.25 C 7.710938 -3.457031 7.492188 -3.472656 7.296875 -3.296875 L 2.21875 1.265625 C 2.113281 1.359375 2.0625 1.472656 2.0625 1.609375 C 2.070312 1.742188 2.113281 1.875 2.1875 2 L 2.40625 2.265625 C 2.476562 2.335938 2.476562 2.410156 2.40625 2.484375 C 2.363281 2.515625 2.316406 2.523438 2.265625 2.515625 C 2.222656 2.515625 2.1875 2.5 2.15625 2.46875 L 1.28125 1.421875 Z M 0.453125 0.578125 "/></g></g></g><g fill="#403737" fill-opacity="1"><g transform="translate(260.080761, 130.662477)"><g><path d="M 9.890625 -0.671875 C 10.265625 -0.117188 10.53125 0.4375 10.6875 1 C 10.84375 1.5625 10.847656 1.894531 10.703125 2 L 9.578125 2.765625 C 9.523438 2.796875 9.46875 2.8125 9.40625 2.8125 C 9.34375 2.8125 9.289062 2.785156 9.25 2.734375 C 9.175781 2.617188 9.195312 2.5 9.3125 2.375 C 9.664062 1.957031 9.859375 1.5 9.890625 1 C 9.929688 0.5 9.800781 0.03125 9.5 -0.40625 C 8.9375 -1.226562 8.210938 -1.691406 7.328125 -1.796875 C 6.441406 -1.910156 5.578125 -1.679688 4.734375 -1.109375 C 4.179688 -0.722656 3.722656 -0.25 3.359375 0.3125 C 2.992188 0.882812 2.78125 1.488281 2.71875 2.125 C 2.65625 2.757812 2.789062 3.320312 3.125 3.8125 C 3.46875 4.300781 3.851562 4.648438 4.28125 4.859375 C 4.71875 5.066406 5.050781 5.09375 5.28125 4.9375 L 6.515625 4.09375 C 6.765625 3.925781 6.796875 3.691406 6.609375 3.390625 L 6.265625 2.8125 C 6.222656 2.738281 6.242188 2.671875 6.328125 2.609375 C 6.421875 2.554688 6.492188 2.578125 6.546875 2.671875 L 7.4375 4.015625 L 8.140625 5 C 8.203125 5.082031 8.191406 5.148438 8.109375 5.203125 C 8.023438 5.265625 7.953125 5.257812 7.890625 5.1875 L 7.75 5.046875 C 7.507812 4.816406 7.285156 4.773438 7.078125 4.921875 L 5.15625 6.234375 L 4.640625 6.671875 C 4.523438 6.753906 4.429688 6.742188 4.359375 6.640625 C 4.316406 6.566406 4.320312 6.472656 4.375 6.359375 C 4.53125 6.097656 4.53125 5.847656 4.375 5.609375 C 4.332031 5.554688 4.226562 5.484375 4.0625 5.390625 C 3.5 5.097656 3.007812 4.648438 2.59375 4.046875 C 1.894531 3.015625 1.664062 1.941406 1.90625 0.828125 C 2.144531 -0.273438 2.773438 -1.175781 3.796875 -1.875 C 4.828125 -2.582031 5.914062 -2.828125 7.0625 -2.609375 C 8.207031 -2.398438 9.148438 -1.753906 9.890625 -0.671875 Z M 9.890625 -0.671875 "/></g></g></g><g fill="#403737" fill-opacity="1"><g transform="translate(268.037853, 143.149038)"><g><path d="M 4.734375 5.90625 L 10.015625 3.453125 C 10.265625 3.335938 10.332031 3.109375 10.21875 2.765625 L 10.109375 2.421875 C 10.085938 2.335938 10.117188 2.273438 10.203125 2.234375 C 10.296875 2.191406 10.363281 2.222656 10.40625 2.328125 L 10.875 3.40625 L 11.296875 4.21875 C 11.347656 4.332031 11.328125 4.410156 11.234375 4.453125 C 11.148438 4.492188 11.082031 4.472656 11.03125 4.390625 L 10.890625 4.21875 C 10.710938 3.945312 10.503906 3.867188 10.265625 3.984375 L 3.375 7.203125 C 3.289062 7.234375 3.234375 7.210938 3.203125 7.140625 L 3.140625 7 C 3.046875 6.8125 3.054688 6.617188 3.171875 6.421875 L 6.890625 -0.90625 C 6.898438 -0.925781 6.894531 -0.953125 6.875 -0.984375 C 6.863281 -1.015625 6.820312 -1.015625 6.75 -0.984375 L 1.546875 1.4375 C 1.304688 1.550781 1.226562 1.769531 1.3125 2.09375 L 1.375 2.28125 C 1.40625 2.382812 1.375 2.457031 1.28125 2.5 C 1.195312 2.539062 1.128906 2.503906 1.078125 2.390625 L 0.71875 1.53125 L 0.1875 0.5 C 0.144531 0.394531 0.164062 0.320312 0.25 0.28125 C 0.34375 0.238281 0.414062 0.253906 0.46875 0.328125 L 0.640625 0.640625 C 0.835938 0.953125 1.0625 1.046875 1.3125 0.921875 L 7.5 -1.953125 C 7.75 -2.066406 7.820312 -2.28125 7.71875 -2.59375 L 7.65625 -2.796875 C 7.625 -2.890625 7.65625 -2.957031 7.75 -3 C 7.84375 -3.050781 7.914062 -3.019531 7.96875 -2.90625 L 8.34375 -2.015625 C 8.4375 -1.796875 8.441406 -1.601562 8.359375 -1.4375 L 4.65625 5.828125 C 4.644531 5.847656 4.644531 5.875 4.65625 5.90625 C 4.664062 5.9375 4.691406 5.9375 4.734375 5.90625 Z M 4.734375 5.90625 "/></g></g></g><g fill="#403737" fill-opacity="1"><g transform="translate(273.854463, 156.840035)"><g><path d="M 3.84375 5.40625 C 3.125 5.613281 2.492188 5.5 1.953125 5.0625 C 1.421875 4.625 1.039062 4.019531 0.8125 3.25 C 0.59375 2.476562 0.5 1.816406 0.53125 1.265625 C 0.570312 0.710938 0.707031 0.40625 0.9375 0.34375 L 2.28125 -0.0625 C 2.445312 -0.101562 2.546875 -0.0546875 2.578125 0.078125 C 2.609375 0.179688 2.550781 0.269531 2.40625 0.34375 C 1.882812 0.726562 1.523438 1.117188 1.328125 1.515625 C 1.128906 1.910156 1.113281 2.394531 1.28125 2.96875 C 1.457031 3.550781 1.726562 3.976562 2.09375 4.25 C 2.46875 4.53125 2.882812 4.601562 3.34375 4.46875 C 3.851562 4.320312 4.191406 3.914062 4.359375 3.25 C 4.441406 2.945312 4.507812 2.617188 4.5625 2.265625 C 4.625 1.910156 4.6875 1.554688 4.75 1.203125 C 4.8125 0.859375 4.90625 0.535156 5.03125 0.234375 C 5.269531 -0.453125 5.707031 -0.890625 6.34375 -1.078125 C 6.976562 -1.265625 7.550781 -1.171875 8.0625 -0.796875 C 8.582031 -0.429688 8.941406 0.0820312 9.140625 0.75 C 9.335938 1.414062 9.421875 2.003906 9.390625 2.515625 C 9.359375 3.023438 9.242188 3.304688 9.046875 3.359375 L 7.875 3.703125 C 7.726562 3.753906 7.632812 3.722656 7.59375 3.609375 C 7.5625 3.503906 7.613281 3.394531 7.75 3.28125 C 8.1875 2.988281 8.484375 2.675781 8.640625 2.34375 C 8.804688 2.007812 8.8125 1.582031 8.65625 1.0625 C 8.507812 0.539062 8.269531 0.171875 7.9375 -0.046875 C 7.601562 -0.273438 7.253906 -0.332031 6.890625 -0.21875 C 6.523438 -0.113281 6.253906 0.125 6.078125 0.5 C 5.898438 0.875 5.769531 1.300781 5.6875 1.78125 C 5.613281 2.269531 5.53125 2.757812 5.4375 3.25 C 5.34375 3.75 5.164062 4.195312 4.90625 4.59375 C 4.65625 5 4.300781 5.269531 3.84375 5.40625 Z M 3.84375 5.40625 "/></g></g></g></svg>